<svg xmlns="http://www.2000/svg" viewBox="0 0 512 512">
  <defs>
    <linearGradient id="shyamarksGrad" x1="0%" y1="0%" x2="100%" y2="100%">
      <stop offset="0%" stop-color="#4F46E5" />
      <stop offset="50%" stop-color="#818CF8" />
      <stop offset="100%" stop-color="#34D399" />
    </linearGradient>
    <filter id="glow" x="-20%" y="-20%" width="140%" height="140%">
      <feGaussianBlur stdDeviation="8" result="blur" />
      <feComposite in="SourceGraphic" in2="blur" operator="over" />
    </filter>
  </defs>
  
  <!-- Background Shape (Shield/Hexagon hybrid for security & tech) -->
  <path d="M256 16 L480 96 V256 C480 395 285 486 256 496 C227 486 32 395 32 256 V96 Z" fill="url(#shyamarksGrad)" opacity="0.15" />
  
  <!-- Outer glowing ring -->
  <path d="M256 16 L480 96 V256 C480 395 285 486 256 496 C227 486 32 395 32 256 V96 Z" fill="none" stroke="url(#shyamarksGrad)" stroke-width="12" filter="url(#glow)"/>

  <!-- Sleek Modern 'S' for Shyamarks -->
  <path d="M340 180 C340 140 300 120 256 120 C212 120 172 140 172 180 C172 220 216 232 256 248 C296 264 340 284 340 332 C340 380 292 400 256 400 C210 400 172 380 172 340" fill="none" stroke="#FFFFFF" stroke-width="44" stroke-linecap="round" stroke-linejoin="round" />
  
  <!-- Tech Accent Node -->
  <circle cx="340" cy="180" r="16" fill="#34D399" />
  <circle cx="172" cy="340" r="16" fill="#818CF8" />
</svg>
